<?xml version="1.0" encoding="UTF-8" standalone="no"?>
<!-- Created with Inkscape (http://www.inkscape.org/) -->
<svg
   xmlns:svg="http://www.w3.org/2000/svg"
   xmlns="http://www.w3.org/2000/svg"
   version="1.0"
   width="3.625in"
   height="2.125in"
   viewBox="0 0 326.4 191.4"
   id="svg3784">
  <defs
     id="defs22" />
  <rect
     width="326.39999"
     height="191.39999"
     x="0"
     y="-6.1035157e-06"
     id="rect2746"
     style="fill:#3c6eb4;fill-opacity:1;stroke:none;stroke-width:50.04000092;stroke-miterlimit:4;stroke-dasharray:none;stroke-opacity:1" />
  <g
     id="g2502">
    <g
       transform="matrix(0.3050252,0,0,0.3050252,55.92,51.176765)"
       id="g5165"
       style="fill:#ffffff;fill-opacity:1">
      <path
         d="M 171.913,178.874 C 171.913,178.874 171.913,178.874 101.597,178.874 C 102.735,194.117 115.023,205.497 131.406,205.497 C 143.011,205.497 153.025,200.718 160.989,192.983 C 162.583,191.384 164.403,190.93 166.45,190.93 C 169.181,190.93 171.913,192.298 173.732,194.574 C 174.871,196.167 175.554,197.988 175.554,199.806 C 175.554,202.31 174.415,205.039 172.366,207.089 C 162.808,217.327 146.652,224.155 130.721,224.155 C 101.822,224.155 78.612,200.945 78.612,172.044 C 78.612,143.146 101.14,119.935 130.039,119.935 C 158.712,119.935 180.102,142.235 180.102,171.588 C 180.104,175.914 176.236,178.874 171.913,178.874 z M 130.04,138.595 C 114.794,138.595 104.327,148.607 102.052,163.166 C 136.412,163.166 158.03,163.166 158.03,163.166 C 155.982,149.29 145.059,138.595 130.04,138.595 z"
         id="path5167"
         style="fill:#ffffff;fill-opacity:1" />
      <path
         d="M 372.838,224.156 C 343.939,224.156 320.73,200.946 320.73,172.045 C 320.73,143.147 343.939,119.936 372.838,119.936 C 401.74,119.936 424.949,143.147 424.949,172.045 C 424.95,200.946 401.741,224.156 372.838,224.156 z M 372.838,139.731 C 354.635,139.731 342.8,154.297 342.8,172.044 C 342.8,189.791 354.635,204.356 372.838,204.356 C 391.043,204.356 402.879,189.791 402.879,172.044 C 402.879,154.297 391.043,139.731 372.838,139.731 z"
         id="path5169"
         style="fill:#ffffff;fill-opacity:1" />
      <path
         d="M 500.19,119.935 C 484.922,119.935 474.823,124.451 465.907,135.786 L 465.084,130.514 L 465.084,130.514 C 464.392,125.01 459.697,120.76 454.013,120.76 C 447.846,120.76 442.845,125.754 442.845,131.924 C 442.845,131.932 442.845,131.941 442.845,131.949 L 442.845,131.949 L 442.845,131.959 L 442.845,131.959 L 442.845,212.095 C 442.845,218.239 447.85,223.246 453.995,223.246 C 460.139,223.246 465.146,218.238 465.146,212.095 L 465.146,169.088 C 465.146,149.519 482.212,139.732 500.19,139.732 C 505.652,139.732 509.973,135.181 509.973,129.719 C 509.973,124.257 505.652,119.935 500.19,119.935 z"
         id="path5171"
         style="fill:#ffffff;fill-opacity:1" />
      <path
         d="M 617.836,172.044 C 618.065,144.056 598.037,119.935 565.724,119.935 C 536.824,119.935 513.385,143.146 513.385,172.044 C 513.385,200.945 536.141,224.155 563.677,224.155 C 577.419,224.155 589.787,217.081 595.305,209.691 L 598.022,216.587 L 598.022,216.587 C 599.48,220.461 603.217,223.219 607.6,223.219 C 613.249,223.219 617.829,218.643 617.836,212.998 L 617.836,212.998 L 617.836,186.27 L 617.836,186.27 L 617.836,172.044 L 617.836,172.044 z M 565.724,204.357 C 547.518,204.357 535.686,189.792 535.686,172.045 C 535.686,154.298 547.518,139.732 565.724,139.732 C 583.928,139.732 595.762,154.298 595.762,172.045 C 595.762,189.792 583.928,204.357 565.724,204.357 z"
         id="path5173"
         style="fill:#ffffff;fill-opacity:1" />
      <path
         d="M 302.833,78.744 C 302.833,72.602 297.828,67.822 291.685,67.822 C 285.541,67.822 280.532,72.602 280.532,78.744 L 280.532,137.456 C 274.845,126.989 262.557,119.935 247.992,119.935 C 218.41,119.935 198.613,142.235 198.613,172.044 C 198.613,201.856 219.093,224.155 247.992,224.155 C 260.883,224.155 272.06,218.835 278.754,209.587 L 281.23,215.866 C 282.764,220.178 286.876,223.262 291.708,223.262 C 297.824,223.262 302.834,218.283 302.834,212.142 C 302.834,212.125 302.834,212.111 302.834,212.094 L 302.834,212.094 L 302.834,78.744 L 302.833,78.744 z M 250.722,204.357 C 232.519,204.357 220.913,189.792 220.913,172.045 C 220.913,154.298 232.518,139.732 250.722,139.732 C 268.928,139.732 280.532,153.613 280.532,172.045 C 280.532,190.473 268.928,204.357 250.722,204.357 z"
         id="path5175"
         style="fill:#ffffff;fill-opacity:1" />
      <path
         d="M 70.718,68.496 C 68.684,68.195 66.611,68.043 64.552,68.043 C 41.508,68.043 22.759,86.793 22.759,109.838 L 22.759,122.893 L 9.104,122.893 C 4.098,122.893 0,126.99 0,131.994 C 0,137.003 4.098,142.051 9.104,142.051 L 22.758,142.051 L 22.758,212.096 C 22.758,218.24 27.765,223.247 33.907,223.247 C 40.053,223.247 45.059,218.239 45.059,212.096 L 45.059,142.051 L 60.156,142.051 C 65.161,142.051 69.257,137.003 69.257,131.994 C 69.257,126.99 65.162,122.893 60.156,122.893 L 45.066,122.893 L 45.066,109.838 C 45.066,99.093 53.807,88.904 64.552,88.904 C 65.52,88.904 66.495,88.976 67.451,89.117 C 73.546,90.019 79.215,87.259 80.119,81.163 C 81.019,75.07 76.812,69.4 70.718,68.496 z"
         id="path5177"
         style="fill:#ffffff;fill-opacity:1" />
      <path
         d="M 622.661,209.697 L 622.661,213.106 L 621.965,213.106 L 621.965,209.697 L 620.8,209.697 L 620.8,209.01 L 623.824,209.01 L 623.824,209.697 L 622.661,209.697 z M 627.505,213.106 L 627.505,210.944 C 627.505,210.8 627.505,210.623 627.505,210.476 C 627.453,210.6 627.389,210.746 627.339,210.882 L 626.318,213.232 L 625.318,210.882 C 625.268,210.745 625.205,210.6 625.155,210.486 C 625.165,210.632 625.165,210.809 625.165,210.944 L 625.165,213.106 L 624.5,213.106 L 624.5,209.01 L 625.196,209.01 L 626.124,211.13 C 626.195,211.309 626.278,211.536 626.34,211.692 C 626.402,211.525 626.486,211.319 626.559,211.13 L 627.463,209.01 L 628.169,209.01 L 628.169,213.106 L 627.505,213.106 L 627.505,213.106 z"
         id="path5179"
         style="fill:#ffffff;fill-opacity:1" />
    </g>
    <g
       id="g2496">
      <path
         d="M 280.92001,70.220098 C 280.92001,59.702829 272.39425,51.176765 261.87698,51.176765 C 251.36459,51.176765 242.84219,59.695814 242.83456,70.206677 L 242.83395,70.206067 L 242.83395,84.942445 L 242.83456,84.943055 C 242.84036,87.329572 244.77574,89.261601 247.16378,89.261601 C 247.1705,89.261601 247.17721,89.260991 247.18422,89.260991 L 247.18544,89.261601 L 261.8843,89.261601 L 261.8843,89.261601 C 272.39852,89.257331 280.92001,80.734317 280.92001,70.220098 z"
         id="path5185"
         style="fill:#294172" />
      <path
         d="M 267.46809,55.690833 C 262.53187,55.690833 258.53055,59.692154 258.53055,64.628376 C 258.53055,64.630206 258.53055,64.632342 258.53055,64.634782 L 258.53055,69.365418 L 253.81486,69.365418 C 253.81394,69.365418 253.81394,69.365418 253.81333,69.365418 C 248.87681,69.365418 244.87579,73.347217 244.87579,78.282829 C 244.87579,83.219052 248.87681,87.220678 253.81333,87.220678 C 258.74925,87.220678 262.75088,83.218747 262.75088,78.282829 C 262.75088,78.281304 262.75088,78.278864 262.75088,78.277034 L 262.75088,73.526266 L 267.46626,73.526266 C 267.46718,73.526266 267.46779,73.526266 267.46809,73.526266 C 272.40401,73.526266 276.40564,69.564599 276.40564,64.628376 C 276.40564,59.692154 272.40401,55.690833 267.46809,55.690833 z M 258.53085,78.29076 C 258.52658,80.89232 256.41581,83.000654 253.81364,83.000654 C 251.20842,83.000654 249.0769,80.888355 249.0769,78.283134 C 249.0769,75.677609 251.20842,73.525961 253.81364,73.525961 C 253.81608,73.525961 253.81821,73.526571 253.82004,73.526571 L 257.86193,73.526571 C 257.86315,73.526571 257.86407,73.525961 257.86498,73.525961 C 258.23284,73.525961 258.53146,73.823666 258.53146,74.191526 C 258.53146,74.191831 258.53116,74.192441 258.53116,74.193052 L 258.53116,78.29076 L 258.53085,78.29076 z M 267.46779,69.365113 C 267.46626,69.365113 267.46474,69.365113 267.46321,69.365113 L 263.41858,69.365113 C 263.41797,69.365113 263.41675,69.365113 263.41675,69.365113 C 263.04828,69.365113 262.75057,69.066798 262.75057,68.698938 L 262.75057,68.698328 L 262.75057,64.620446 C 262.75515,62.017971 264.86531,59.910552 267.46748,59.910552 C 270.07301,59.910552 272.20483,62.022546 272.20483,64.628376 C 272.20544,67.233597 270.07331,69.365113 267.46779,69.365113 z"
         id="path5189"
         style="fill:#3c6eb4" />
      <path
         d="M 258.53085,69.365113 L 258.53085,64.634477 C 258.53085,64.632037 258.53085,64.629901 258.53085,64.628071 C 258.53085,59.691848 262.53217,55.690528 267.4684,55.690528 C 268.21754,55.690528 268.7495,55.77441 269.44313,55.956205 C 270.45368,56.220967 271.27938,57.04911 271.27969,58.013295 C 271.27999,59.178491 270.43416,60.025546 269.17013,60.025546 C 268.56771,60.025546 268.35023,59.910247 267.46809,59.910247 C 264.86592,59.910247 262.75576,62.017666 262.75118,64.620141 L 262.75118,68.698023 L 262.75118,68.698633 C 262.75118,69.066493 263.04889,69.364808 263.41736,69.364808 C 263.41736,69.364808 263.41858,69.364808 263.41919,69.364808 L 266.51672,69.364808 C 267.67124,69.364808 268.60309,70.288424 268.60401,71.44569 C 268.60401,72.60387 267.67093,73.525656 266.51672,73.525656 L 262.75118,73.525656 L 262.75118,78.276424 C 262.75118,78.278254 262.75118,78.280694 262.75118,78.282829 C 262.75118,83.218442 258.74956,87.220068 253.81364,87.220068 C 253.0648,87.220068 252.53253,87.135576 251.83921,86.954391 C 250.82866,86.689934 250.00265,85.86118 250.00235,84.897301 C 250.00235,83.732105 250.84788,82.884745 252.11221,82.884745 C 252.71402,82.884745 252.93212,83.000349 253.81364,83.000349 C 256.41581,83.000349 258.52658,80.892625 258.53116,78.290455 C 258.53116,78.290455 258.53116,74.191526 258.53116,74.191526 C 258.53116,73.824276 258.23254,73.526571 257.86468,73.526571 C 257.86407,73.526571 257.86376,73.526571 257.86285,73.526571 L 254.76562,73.525961 C 253.6111,73.525961 252.67803,72.604785 252.67803,71.447215 C 252.67742,70.282323 253.62056,69.365113 254.78758,69.365113 L 258.53085,69.365113 L 258.53085,69.365113 z"
         id="path5191"
         style="fill:#ffffff" />
      <path
         d="M 276.15613,84.925668 L 276.15613,85.965804 L 275.94413,85.965804 L 275.94413,84.925668 L 275.58878,84.925668 L 275.58878,84.716421 L 276.51117,84.716421 L 276.51117,84.925668 L 276.15613,84.925668 z M 277.63428,85.965804 L 277.63428,85.30634 C 277.63428,85.262111 277.63428,85.208122 277.63428,85.163283 C 277.61872,85.201411 277.5995,85.245945 277.58364,85.287733 L 277.27252,86.003932 L 276.9678,85.287733 C 276.95255,85.245945 276.93302,85.201411 276.91747,85.166333 C 276.92052,85.211477 276.92052,85.265161 276.92052,85.30634 L 276.92052,85.965804 L 276.71768,85.965804 L 276.71768,84.716421 L 276.93028,84.716421 L 277.21243,85.363074 C 277.23469,85.417369 277.25971,85.487525 277.27862,85.534499 C 277.29753,85.483864 277.32346,85.420724 277.34511,85.363074 L 277.62147,84.716421 L 277.83681,84.716421 L 277.83681,85.965804 L 277.63428,85.965804 L 277.63428,85.965804 z"
         id="path5193"
         style="fill:#294172" />
    </g>
  </g>
</svg>
