<?xml version="1.0" encoding="UTF-8" standalone="no"?>
<!-- Created with Inkscape (http://www.inkscape.org/) -->
<svg
   xmlns:svg="http://www.w3.org/2000/svg"
   xmlns="http://www.w3.org/2000/svg"
   version="1.0"
   width="3.625in"
   height="2.125in"
   viewBox="0 0 326.4 191.4"
   id="svg3784">
  <defs
     id="defs22" />
  <rect
     width="326.39999"
     height="191.39999"
     x="0"
     y="-6.1035157e-06"
     id="rect2746"
     style="fill:#3c6eb4;fill-opacity:1;stroke:none;stroke-width:50.04000092;stroke-miterlimit:4;stroke-dasharray:none;stroke-opacity:1" />
  <g
     transform="translate(5.7,5.6999939)"
     id="g5290">
    <g
       transform="matrix(0.3050252,0,0,0.3050252,50.22,45.476771)"
       id="g5165"
       style="fill:#ffffff;fill-opacity:1">
      <path
         d="M 171.913,178.874 C 171.913,178.874 171.913,178.874 101.597,178.874 C 102.735,194.117 115.023,205.497 131.406,205.497 C 143.011,205.497 153.025,200.718 160.989,192.983 C 162.583,191.384 164.403,190.93 166.45,190.93 C 169.181,190.93 171.913,192.298 173.732,194.574 C 174.871,196.167 175.554,197.988 175.554,199.806 C 175.554,202.31 174.415,205.039 172.366,207.089 C 162.808,217.327 146.652,224.155 130.721,224.155 C 101.822,224.155 78.612,200.945 78.612,172.044 C 78.612,143.146 101.14,119.935 130.039,119.935 C 158.712,119.935 180.102,142.235 180.102,171.588 C 180.104,175.914 176.236,178.874 171.913,178.874 z M 130.04,138.595 C 114.794,138.595 104.327,148.607 102.052,163.166 C 136.412,163.166 158.03,163.166 158.03,163.166 C 155.982,149.29 145.059,138.595 130.04,138.595 z"
         id="path5167"
         style="fill:#ffffff;fill-opacity:1" />
      <path
         d="M 372.838,224.156 C 343.939,224.156 320.73,200.946 320.73,172.045 C 320.73,143.147 343.939,119.936 372.838,119.936 C 401.74,119.936 424.949,143.147 424.949,172.045 C 424.95,200.946 401.741,224.156 372.838,224.156 z M 372.838,139.731 C 354.635,139.731 342.8,154.297 342.8,172.044 C 342.8,189.791 354.635,204.356 372.838,204.356 C 391.043,204.356 402.879,189.791 402.879,172.044 C 402.879,154.297 391.043,139.731 372.838,139.731 z"
         id="path5169"
         style="fill:#ffffff;fill-opacity:1" />
      <path
         d="M 500.19,119.935 C 484.922,119.935 474.823,124.451 465.907,135.786 L 465.084,130.514 L 465.084,130.514 C 464.392,125.01 459.697,120.76 454.013,120.76 C 447.846,120.76 442.845,125.754 442.845,131.924 C 442.845,131.932 442.845,131.941 442.845,131.949 L 442.845,131.949 L 442.845,131.959 L 442.845,131.959 L 442.845,212.095 C 442.845,218.239 447.85,223.246 453.995,223.246 C 460.139,223.246 465.146,218.238 465.146,212.095 L 465.146,169.088 C 465.146,149.519 482.212,139.732 500.19,139.732 C 505.652,139.732 509.973,135.181 509.973,129.719 C 509.973,124.257 505.652,119.935 500.19,119.935 z"
         id="path5171"
         style="fill:#ffffff;fill-opacity:1" />
      <path
         d="M 617.836,172.044 C 618.065,144.056 598.037,119.935 565.724,119.935 C 536.824,119.935 513.385,143.146 513.385,172.044 C 513.385,200.945 536.141,224.155 563.677,224.155 C 577.419,224.155 589.787,217.081 595.305,209.691 L 598.022,216.587 L 598.022,216.587 C 599.48,220.461 603.217,223.219 607.6,223.219 C 613.249,223.219 617.829,218.643 617.836,212.998 L 617.836,212.998 L 617.836,186.27 L 617.836,186.27 L 617.836,172.044 L 617.836,172.044 z M 565.724,204.357 C 547.518,204.357 535.686,189.792 535.686,172.045 C 535.686,154.298 547.518,139.732 565.724,139.732 C 583.928,139.732 595.762,154.298 595.762,172.045 C 595.762,189.792 583.928,204.357 565.724,204.357 z"
         id="path5173"
         style="fill:#ffffff;fill-opacity:1" />
      <path
         d="M 302.833,78.744 C 302.833,72.602 297.828,67.822 291.685,67.822 C 285.541,67.822 280.532,72.602 280.532,78.744 L 280.532,137.456 C 274.845,126.989 262.557,119.935 247.992,119.935 C 218.41,119.935 198.613,142.235 198.613,172.044 C 198.613,201.856 219.093,224.155 247.992,224.155 C 260.883,224.155 272.06,218.835 278.754,209.587 L 281.23,215.866 C 282.764,220.178 286.876,223.262 291.708,223.262 C 297.824,223.262 302.834,218.283 302.834,212.142 C 302.834,212.125 302.834,212.111 302.834,212.094 L 302.834,212.094 L 302.834,78.744 L 302.833,78.744 z M 250.722,204.357 C 232.519,204.357 220.913,189.792 220.913,172.045 C 220.913,154.298 232.518,139.732 250.722,139.732 C 268.928,139.732 280.532,153.613 280.532,172.045 C 280.532,190.473 268.928,204.357 250.722,204.357 z"
         id="path5175"
         style="fill:#ffffff;fill-opacity:1" />
      <path
         d="M 70.718,68.496 C 68.684,68.195 66.611,68.043 64.552,68.043 C 41.508,68.043 22.759,86.793 22.759,109.838 L 22.759,122.893 L 9.104,122.893 C 4.098,122.893 0,126.99 0,131.994 C 0,137.003 4.098,142.051 9.104,142.051 L 22.758,142.051 L 22.758,212.096 C 22.758,218.24 27.765,223.247 33.907,223.247 C 40.053,223.247 45.059,218.239 45.059,212.096 L 45.059,142.051 L 60.156,142.051 C 65.161,142.051 69.257,137.003 69.257,131.994 C 69.257,126.99 65.162,122.893 60.156,122.893 L 45.066,122.893 L 45.066,109.838 C 45.066,99.093 53.807,88.904 64.552,88.904 C 65.52,88.904 66.495,88.976 67.451,89.117 C 73.546,90.019 79.215,87.259 80.119,81.163 C 81.019,75.07 76.812,69.4 70.718,68.496 z"
         id="path5177"
         style="fill:#ffffff;fill-opacity:1" />
      <path
         d="M 622.661,209.697 L 622.661,213.106 L 621.965,213.106 L 621.965,209.697 L 620.8,209.697 L 620.8,209.01 L 623.824,209.01 L 623.824,209.697 L 622.661,209.697 z M 627.505,213.106 L 627.505,210.944 C 627.505,210.8 627.505,210.623 627.505,210.476 C 627.453,210.6 627.389,210.746 627.339,210.882 L 626.318,213.232 L 625.318,210.882 C 625.268,210.745 625.205,210.6 625.155,210.486 C 625.165,210.632 625.165,210.809 625.165,210.944 L 625.165,213.106 L 624.5,213.106 L 624.5,209.01 L 625.196,209.01 L 626.124,211.13 C 626.195,211.309 626.278,211.536 626.34,211.692 C 626.402,211.525 626.486,211.319 626.559,211.13 L 627.463,209.01 L 628.169,209.01 L 628.169,213.106 L 627.505,213.106 L 627.505,213.106 z"
         id="path5179"
         style="fill:#ffffff;fill-opacity:1" />
    </g>
    <g
       transform="matrix(0.3050252,0,0,0.3050252,50.22,45.476771)"
       id="g5181">
      <g
         id="g5183">
        <path
           d="M 737.644,62.432 C 737.644,27.952 709.693,0 675.213,0 C 640.749,0 612.809,27.929 612.784,62.388 L 612.782,62.386 L 612.782,110.698 L 612.784,110.7 C 612.803,118.524 619.148,124.858 626.977,124.858 C 626.999,124.858 627.021,124.856 627.044,124.856 L 627.048,124.858 L 675.237,124.858 L 675.237,124.858 C 709.707,124.844 737.644,96.902 737.644,62.432 z"
           id="path5185"
           style="fill:#072b61" />
        <g
           id="g5187">
          <path
             d="M 693.543,14.799 C 677.36,14.799 664.242,27.917 664.242,44.1 C 664.242,44.106 664.242,44.113 664.242,44.121 L 664.242,59.63 L 648.782,59.63 C 648.779,59.63 648.779,59.63 648.777,59.63 C 632.593,59.63 619.476,72.684 619.476,88.865 C 619.476,105.048 632.593,118.167 648.777,118.167 C 664.959,118.167 678.078,105.047 678.078,88.865 C 678.078,88.86 678.078,88.852 678.078,88.846 L 678.078,73.271 L 693.537,73.271 C 693.54,73.271 693.542,73.271 693.543,73.271 C 709.725,73.271 722.844,60.283 722.844,44.1 C 722.844,27.917 709.725,14.799 693.543,14.799 z M 664.243,88.891 C 664.229,97.42 657.309,104.332 648.778,104.332 C 640.237,104.332 633.249,97.407 633.249,88.866 C 633.249,80.324 640.237,73.27 648.778,73.27 C 648.786,73.27 648.793,73.272 648.799,73.272 L 662.05,73.272 C 662.054,73.272 662.057,73.27 662.06,73.27 C 663.266,73.27 664.245,74.246 664.245,75.452 C 664.245,75.453 664.244,75.455 664.244,75.457 L 664.244,88.891 L 664.243,88.891 z M 693.542,59.629 C 693.537,59.629 693.532,59.629 693.527,59.629 L 680.267,59.629 C 680.265,59.629 680.261,59.629 680.261,59.629 C 679.053,59.629 678.077,58.651 678.077,57.445 L 678.077,57.443 L 678.077,44.074 C 678.092,35.542 685.01,28.633 693.541,28.633 C 702.083,28.633 709.072,35.557 709.072,44.1 C 709.074,52.641 702.084,59.629 693.542,59.629 z"
             id="path5189"
             style="fill:#0a57a4" />
        </g>
        <path
           d="M 664.243,59.629 L 664.243,44.12 C 664.243,44.112 664.243,44.105 664.243,44.099 C 664.243,27.916 677.361,14.798 693.544,14.798 C 696,14.798 697.744,15.073 700.018,15.669 C 703.331,16.537 706.038,19.252 706.039,22.413 C 706.04,26.233 703.267,29.01 699.123,29.01 C 697.148,29.01 696.435,28.632 693.543,28.632 C 685.012,28.632 678.094,35.541 678.079,44.073 L 678.079,57.442 L 678.079,57.444 C 678.079,58.65 679.055,59.628 680.263,59.628 C 680.263,59.628 680.267,59.628 680.269,59.628 L 690.424,59.628 C 694.209,59.628 697.264,62.656 697.267,66.45 C 697.267,70.247 694.208,73.269 690.424,73.269 L 678.079,73.269 L 678.079,88.844 C 678.079,88.85 678.079,88.858 678.079,88.865 C 678.079,105.046 664.96,118.165 648.778,118.165 C 646.323,118.165 644.578,117.888 642.305,117.294 C 638.992,116.427 636.284,113.71 636.283,110.55 C 636.283,106.73 639.055,103.952 643.2,103.952 C 645.173,103.952 645.888,104.331 648.778,104.331 C 657.309,104.331 664.229,97.421 664.244,88.89 C 664.244,88.89 664.244,75.452 664.244,75.452 C 664.244,74.248 663.265,73.272 662.059,73.272 C 662.057,73.272 662.056,73.272 662.053,73.272 L 651.899,73.27 C 648.114,73.27 645.055,70.25 645.055,66.455 C 645.053,62.636 648.145,59.629 651.971,59.629 L 664.243,59.629 L 664.243,59.629 z"
           id="path5191"
           style="fill:#ffffff" />
      </g>
      <path
         d="M 722.026,110.643 L 722.026,114.053 L 721.331,114.053 L 721.331,110.643 L 720.166,110.643 L 720.166,109.957 L 723.19,109.957 L 723.19,110.643 L 722.026,110.643 z M 726.872,114.053 L 726.872,111.891 C 726.872,111.746 726.872,111.569 726.872,111.422 C 726.821,111.547 726.758,111.693 726.706,111.83 L 725.686,114.178 L 724.687,111.83 C 724.637,111.693 724.573,111.547 724.522,111.432 C 724.532,111.58 724.532,111.756 724.532,111.891 L 724.532,114.053 L 723.867,114.053 L 723.867,109.957 L 724.564,109.957 L 725.489,112.077 C 725.562,112.255 725.644,112.485 725.706,112.639 C 725.768,112.473 725.853,112.266 725.924,112.077 L 726.83,109.957 L 727.536,109.957 L 727.536,114.053 L 726.872,114.053 L 726.872,114.053 z"
         id="path5193"
         style="fill:#0a57a4" />
    </g>
  </g>
</svg>
