<?xml version="1.0" encoding="UTF-8" standalone="no"?>
<!-- Created with Inkscape (http://www.inkscape.org/) -->
<svg
   xmlns:svg="http://www.w3.org/2000/svg"
   xmlns="http://www.w3.org/2000/svg"
   version="1.0"
   width="3.625in"
   height="2.125in"
   viewBox="0 0 326.25 191.25"
   id="svg3784">
  <defs
     id="defs22" />
  <rect
     width="326.25"
     height="191.25"
     x="0"
     y="0"
     id="rect2746"
     style="fill:#3c6eb4;fill-opacity:1;stroke:none;stroke-width:50.04000092;stroke-miterlimit:4;stroke-dasharray:none;stroke-opacity:1" />
  <g
     transform="translate(5.625,5.625)"
     id="g3267">
    <g
       transform="matrix(0.3050252,0,0,0.3050252,50.22,45.476771)"
       id="g5165"
       style="fill:#ffffff;fill-opacity:1">
      <path
         d="M 171.913,178.874 C 171.913,178.874 171.913,178.874 101.597,178.874 C 102.735,194.117 115.023,205.497 131.406,205.497 C 143.011,205.497 153.025,200.718 160.989,192.983 C 162.583,191.384 164.403,190.93 166.45,190.93 C 169.181,190.93 171.913,192.298 173.732,194.574 C 174.871,196.167 175.554,197.988 175.554,199.806 C 175.554,202.31 174.415,205.039 172.366,207.089 C 162.808,217.327 146.652,224.155 130.721,224.155 C 101.822,224.155 78.612,200.945 78.612,172.044 C 78.612,143.146 101.14,119.935 130.039,119.935 C 158.712,119.935 180.102,142.235 180.102,171.588 C 180.104,175.914 176.236,178.874 171.913,178.874 z M 130.04,138.595 C 114.794,138.595 104.327,148.607 102.052,163.166 C 136.412,163.166 158.03,163.166 158.03,163.166 C 155.982,149.29 145.059,138.595 130.04,138.595 z"
         id="path5167"
         style="fill:#ffffff;fill-opacity:1" />
      <path
         d="M 372.838,224.156 C 343.939,224.156 320.73,200.946 320.73,172.045 C 320.73,143.147 343.939,119.936 372.838,119.936 C 401.74,119.936 424.949,143.147 424.949,172.045 C 424.95,200.946 401.741,224.156 372.838,224.156 z M 372.838,139.731 C 354.635,139.731 342.8,154.297 342.8,172.044 C 342.8,189.791 354.635,204.356 372.838,204.356 C 391.043,204.356 402.879,189.791 402.879,172.044 C 402.879,154.297 391.043,139.731 372.838,139.731 z"
         id="path5169"
         style="fill:#ffffff;fill-opacity:1" />
      <path
         d="M 500.19,119.935 C 484.922,119.935 474.823,124.451 465.907,135.786 L 465.084,130.514 L 465.084,130.514 C 464.392,125.01 459.697,120.76 454.013,120.76 C 447.846,120.76 442.845,125.754 442.845,131.924 C 442.845,131.932 442.845,131.941 442.845,131.949 L 442.845,131.949 L 442.845,131.959 L 442.845,131.959 L 442.845,212.095 C 442.845,218.239 447.85,223.246 453.995,223.246 C 460.139,223.246 465.146,218.238 465.146,212.095 L 465.146,169.088 C 465.146,149.519 482.212,139.732 500.19,139.732 C 505.652,139.732 509.973,135.181 509.973,129.719 C 509.973,124.257 505.652,119.935 500.19,119.935 z"
         id="path5171"
         style="fill:#ffffff;fill-opacity:1" />
      <path
         d="M 617.836,172.044 C 618.065,144.056 598.037,119.935 565.724,119.935 C 536.824,119.935 513.385,143.146 513.385,172.044 C 513.385,200.945 536.141,224.155 563.677,224.155 C 577.419,224.155 589.787,217.081 595.305,209.691 L 598.022,216.587 L 598.022,216.587 C 599.48,220.461 603.217,223.219 607.6,223.219 C 613.249,223.219 617.829,218.643 617.836,212.998 L 617.836,212.998 L 617.836,186.27 L 617.836,186.27 L 617.836,172.044 L 617.836,172.044 z M 565.724,204.357 C 547.518,204.357 535.686,189.792 535.686,172.045 C 535.686,154.298 547.518,139.732 565.724,139.732 C 583.928,139.732 595.762,154.298 595.762,172.045 C 595.762,189.792 583.928,204.357 565.724,204.357 z"
         id="path5173"
         style="fill:#ffffff;fill-opacity:1" />
      <path
         d="M 302.833,78.744 C 302.833,72.602 297.828,67.822 291.685,67.822 C 285.541,67.822 280.532,72.602 280.532,78.744 L 280.532,137.456 C 274.845,126.989 262.557,119.935 247.992,119.935 C 218.41,119.935 198.613,142.235 198.613,172.044 C 198.613,201.856 219.093,224.155 247.992,224.155 C 260.883,224.155 272.06,218.835 278.754,209.587 L 281.23,215.866 C 282.764,220.178 286.876,223.262 291.708,223.262 C 297.824,223.262 302.834,218.283 302.834,212.142 C 302.834,212.125 302.834,212.111 302.834,212.094 L 302.834,212.094 L 302.834,78.744 L 302.833,78.744 z M 250.722,204.357 C 232.519,204.357 220.913,189.792 220.913,172.045 C 220.913,154.298 232.518,139.732 250.722,139.732 C 268.928,139.732 280.532,153.613 280.532,172.045 C 280.532,190.473 268.928,204.357 250.722,204.357 z"
         id="path5175"
         style="fill:#ffffff;fill-opacity:1" />
      <path
         d="M 70.718,68.496 C 68.684,68.195 66.611,68.043 64.552,68.043 C 41.508,68.043 22.759,86.793 22.759,109.838 L 22.759,122.893 L 9.104,122.893 C 4.098,122.893 0,126.99 0,131.994 C 0,137.003 4.098,142.051 9.104,142.051 L 22.758,142.051 L 22.758,212.096 C 22.758,218.24 27.765,223.247 33.907,223.247 C 40.053,223.247 45.059,218.239 45.059,212.096 L 45.059,142.051 L 60.156,142.051 C 65.161,142.051 69.257,137.003 69.257,131.994 C 69.257,126.99 65.162,122.893 60.156,122.893 L 45.066,122.893 L 45.066,109.838 C 45.066,99.093 53.807,88.904 64.552,88.904 C 65.52,88.904 66.495,88.976 67.451,89.117 C 73.546,90.019 79.215,87.259 80.119,81.163 C 81.019,75.07 76.812,69.4 70.718,68.496 z"
         id="path5177"
         style="fill:#ffffff;fill-opacity:1" />
      <path
         d="M 622.661,209.697 L 622.661,213.106 L 621.965,213.106 L 621.965,209.697 L 620.8,209.697 L 620.8,209.01 L 623.824,209.01 L 623.824,209.697 L 622.661,209.697 z M 627.505,213.106 L 627.505,210.944 C 627.505,210.8 627.505,210.623 627.505,210.476 C 627.453,210.6 627.389,210.746 627.339,210.882 L 626.318,213.232 L 625.318,210.882 C 625.268,210.745 625.205,210.6 625.155,210.486 C 625.165,210.632 625.165,210.809 625.165,210.944 L 625.165,213.106 L 624.5,213.106 L 624.5,209.01 L 625.196,209.01 L 626.124,211.13 C 626.195,211.309 626.278,211.536 626.34,211.692 C 626.402,211.525 626.486,211.319 626.559,211.13 L 627.463,209.01 L 628.169,209.01 L 628.169,213.106 L 627.505,213.106 L 627.505,213.106 z"
         id="path5179"
         style="fill:#ffffff;fill-opacity:1" />
    </g>
    <g
       id="g3261">
      <path
         d="M 275.22001,64.520104 C 275.22001,54.002835 266.69425,45.476771 256.17698,45.476771 C 245.66459,45.476771 237.14219,53.99582 237.13456,64.506683 L 237.13395,64.506073 L 237.13395,79.242451 L 237.13456,79.243061 C 237.14036,81.629578 239.07574,83.561607 241.46378,83.561607 C 241.4705,83.561607 241.47721,83.560997 241.48422,83.560997 L 241.48544,83.561607 L 256.1843,83.561607 L 256.1843,83.561607 C 266.69852,83.557337 275.22001,75.034323 275.22001,64.520104 z"
         id="path5185"
         style="fill:#294172;fill-opacity:1" />
      <path
         d="M 261.76809,49.990839 C 256.83187,49.990839 252.83055,53.99216 252.83055,58.928382 C 252.83055,58.930212 252.83055,58.932348 252.83055,58.934788 L 252.83055,63.665424 L 248.11486,63.665424 C 248.11394,63.665424 248.11394,63.665424 248.11333,63.665424 C 243.17681,63.665424 239.17579,67.647223 239.17579,72.582835 C 239.17579,77.519058 243.17681,81.520684 248.11333,81.520684 C 253.04925,81.520684 257.05088,77.518753 257.05088,72.582835 C 257.05088,72.58131 257.05088,72.57887 257.05088,72.57704 L 257.05088,67.826272 L 261.76626,67.826272 C 261.76718,67.826272 261.76779,67.826272 261.76809,67.826272 C 266.70401,67.826272 270.70564,63.864605 270.70564,58.928382 C 270.70564,53.99216 266.70401,49.990839 261.76809,49.990839 z M 252.83085,72.590766 C 252.82658,75.192326 250.71581,77.30066 248.11364,77.30066 C 245.50842,77.30066 243.3769,75.188361 243.3769,72.58314 C 243.3769,69.977615 245.50842,67.825967 248.11364,67.825967 C 248.11608,67.825967 248.11821,67.826577 248.12004,67.826577 L 252.16193,67.826577 C 252.16315,67.826577 252.16407,67.825967 252.16498,67.825967 C 252.53284,67.825967 252.83146,68.123672 252.83146,68.491532 C 252.83146,68.491837 252.83116,68.492447 252.83116,68.493058 L 252.83116,72.590766 L 252.83085,72.590766 z M 261.76779,63.665119 C 261.76626,63.665119 261.76474,63.665119 261.76321,63.665119 L 257.71858,63.665119 C 257.71797,63.665119 257.71675,63.665119 257.71675,63.665119 C 257.34828,63.665119 257.05057,63.366804 257.05057,62.998944 L 257.05057,62.998334 L 257.05057,58.920452 C 257.05515,56.317977 259.16531,54.210558 261.76748,54.210558 C 264.37301,54.210558 266.50483,56.322552 266.50483,58.928382 C 266.50544,61.533603 264.37331,63.665119 261.76779,63.665119 z"
         id="path5189"
         style="fill:#3c6eb4;fill-opacity:1" />
      <path
         d="M 252.83085,63.665119 L 252.83085,58.934483 C 252.83085,58.932043 252.83085,58.929907 252.83085,58.928077 C 252.83085,53.991854 256.83217,49.990534 261.7684,49.990534 C 262.51754,49.990534 263.0495,50.074416 263.74313,50.256211 C 264.75368,50.520973 265.57938,51.349116 265.57969,52.313301 C 265.57999,53.478497 264.73416,54.325552 263.47013,54.325552 C 262.86771,54.325552 262.65023,54.210253 261.76809,54.210253 C 259.16592,54.210253 257.05576,56.317672 257.05118,58.920147 L 257.05118,62.998029 L 257.05118,62.998639 C 257.05118,63.366499 257.34889,63.664814 257.71736,63.664814 C 257.71736,63.664814 257.71858,63.664814 257.71919,63.664814 L 260.81672,63.664814 C 261.97124,63.664814 262.90309,64.58843 262.90401,65.745696 C 262.90401,66.903876 261.97093,67.825662 260.81672,67.825662 L 257.05118,67.825662 L 257.05118,72.57643 C 257.05118,72.57826 257.05118,72.5807 257.05118,72.582835 C 257.05118,77.518448 253.04956,81.520074 248.11364,81.520074 C 247.3648,81.520074 246.83253,81.435582 246.13921,81.254397 C 245.12866,80.98994 244.30265,80.161186 244.30235,79.197307 C 244.30235,78.032111 245.14788,77.184751 246.41221,77.184751 C 247.01402,77.184751 247.23212,77.300355 248.11364,77.300355 C 250.71581,77.300355 252.82658,75.192631 252.83116,72.590461 C 252.83116,72.590461 252.83116,68.491532 252.83116,68.491532 C 252.83116,68.124282 252.53254,67.826577 252.16468,67.826577 C 252.16407,67.826577 252.16376,67.826577 252.16285,67.826577 L 249.06562,67.825967 C 247.9111,67.825967 246.97803,66.904791 246.97803,65.747221 C 246.97742,64.582329 247.92056,63.665119 249.08758,63.665119 L 252.83085,63.665119 L 252.83085,63.665119 z"
         id="path5191"
         style="fill:#ffffff" />
      <path
         d="M 270.45613,79.225674 L 270.45613,80.26581 L 270.24413,80.26581 L 270.24413,79.225674 L 269.88878,79.225674 L 269.88878,79.016427 L 270.81117,79.016427 L 270.81117,79.225674 L 270.45613,79.225674 z M 271.93428,80.26581 L 271.93428,79.606346 C 271.93428,79.562117 271.93428,79.508128 271.93428,79.463289 C 271.91872,79.501417 271.8995,79.545951 271.88364,79.587739 L 271.57252,80.303938 L 271.2678,79.587739 C 271.25255,79.545951 271.23302,79.501417 271.21747,79.466339 C 271.22052,79.511483 271.22052,79.565167 271.22052,79.606346 L 271.22052,80.26581 L 271.01768,80.26581 L 271.01768,79.016427 L 271.23028,79.016427 L 271.51243,79.66308 C 271.53469,79.717375 271.55971,79.787531 271.57862,79.834505 C 271.59753,79.78387 271.62346,79.72073 271.64511,79.66308 L 271.92147,79.016427 L 272.13681,79.016427 L 272.13681,80.26581 L 271.93428,80.26581 L 271.93428,80.26581 z"
         id="path5193"
         style="fill:#294172;fill-opacity:1" />
    </g>
  </g>
</svg>
